<svg width="20" height="20" viewBox="0 0 20 20" fill="none" xmlns="http://www.w3.org/2000/svg">
<path d="M2 16V2V16ZM4 6H14V4H4V6ZM4 10H8.75C9.08333 9.6 9.446 9.229 9.838 8.887C10.2293 8.54567 10.6583 8.25 11.125 8H4V10ZM4 14H7.05C7.08333 13.65 7.146 13.3083 7.238 12.975C7.32933 12.6417 7.44167 12.3167 7.575 12H4V14ZM2 18C1.45 18 0.979 17.8043 0.587 17.413C0.195667 17.021 0 16.55 0 16V2C0 1.45 0.195667 0.979 0.587 0.587C0.979 0.195667 1.45 0 2 0H16C16.55 0 17.021 0.195667 17.413 0.587C17.8043 0.979 18 1.45 18 2V7.575C17.6833 7.44167 17.3583 7.32933 17.025 7.238C16.6917 7.146 16.35 7.08333 16 7.05V2H2V16H7.05C7.08333 16.35 7.146 16.6917 7.238 17.025C7.32933 17.3583 7.44167 17.6833 7.575 18H2ZM15 20C13.7833 20 12.7207 19.621 11.812 18.863C10.904 18.1043 10.3333 17.15 10.1 16H11.65C11.8667 16.7333 12.2793 17.3333 12.888 17.8C13.496 18.2667 14.2 18.5 15 18.5C15.9667 18.5 16.7917 18.1583 17.475 17.475C18.1583 16.7917 18.5 15.9667 18.5 15C18.5 14.0333 18.1583 13.2083 17.475 12.525C16.7917 11.8417 15.9667 11.5 15 11.5C14.5167 11.5 14.0667 11.5873 13.65 11.762C13.2333 11.9373 12.8667 12.1833 12.55 12.5H14V14H10V10H11.5V11.425C11.95 10.9917 12.475 10.6457 13.075 10.387C13.675 10.129 14.3167 10 15 10C16.3833 10 17.5627 10.4873 18.538 11.462C19.5127 12.4373 20 13.6167 20 15C20 16.3833 19.5127 17.5627 18.538 18.538C17.5627 19.5127 16.3833 20 15 20Z" fill="black" fill-opacity="0.87"/>
</svg>
