<svg width="11" height="14" viewBox="0 0 11 14" fill="none" xmlns="http://www.w3.org/2000/svg">
<path d="M2 14C1.45 14 0.979333 13.8043 0.588 13.413C0.196 13.021 0 12.55 0 12V2C0 1.45 0.196 0.979333 0.588 0.588C0.979333 0.196 1.45 0 2 0H5.5C6.63333 0 7.625 0.325 8.475 0.975C9.325 1.625 9.75 2.51667 9.75 3.65C9.75 4.45 9.56667 5.08733 9.2 5.562C8.83333 6.03733 8.4 6.4 7.9 6.65V6.85C8.63333 7.1 9.20833 7.49167 9.625 8.025C10.0417 8.55833 10.25 9.25 10.25 10.1C10.25 11.35 9.79567 12.3127 8.887 12.988C7.979 13.6627 6.9 14 5.65 14H2ZM2.65 5.7H5.3C5.85 5.7 6.30433 5.54167 6.663 5.225C7.021 4.90833 7.2 4.50833 7.2 4.025C7.2 3.54167 7.021 3.14167 6.663 2.825C6.30433 2.50833 5.85 2.35 5.3 2.35H2.65V5.7ZM2.65 11.6H5.5C6.15 11.6 6.66267 11.4333 7.038 11.1C7.41267 10.7667 7.6 10.325 7.6 9.775C7.6 9.225 7.41267 8.78333 7.038 8.45C6.66267 8.11667 6.15 7.95 5.5 7.95H2.65V11.6Z" fill="black" fill-opacity="0.87"/>
</svg>
