<svg width="36" height="36" viewBox="0 0 36 36" fill="none" xmlns="http://www.w3.org/2000/svg">
<g clip-path="url(#clip0_55_195)">
<path d="M5.20996 11.17C6.31453 11.17 7.20996 10.2746 7.20996 9.17C7.20996 8.06543 6.31453 7.17 5.20996 7.17C4.10539 7.17 3.20996 8.06543 3.20996 9.17C3.20996 10.2746 4.10539 11.17 5.20996 11.17Z" fill="black" fill-opacity="0.87"/>
<path d="M5.20996 19.17C6.31453 19.17 7.20996 18.2746 7.20996 17.17C7.20996 16.0654 6.31453 15.17 5.20996 15.17C4.10539 15.17 3.20996 16.0654 3.20996 17.17C3.20996 18.2746 4.10539 19.17 5.20996 19.17Z" fill="black" fill-opacity="0.87"/>
<path d="M5.20996 27.17C6.31453 27.17 7.20996 26.2746 7.20996 25.17C7.20996 24.0654 6.31453 23.17 5.20996 23.17C4.10539 23.17 3.20996 24.0654 3.20996 25.17C3.20996 26.2746 4.10539 27.17 5.20996 27.17Z" fill="black" fill-opacity="0.87"/>
<path d="M32.42 9C32.42 8.73478 32.3146 8.48043 32.1271 8.29289C31.9396 8.10536 31.6852 8 31.42 8H10V10H31.42C31.6852 10 31.9396 9.89464 32.1271 9.70711C32.3146 9.51957 32.42 9.26522 32.42 9Z" fill="black" fill-opacity="0.87"/>
<path d="M31.42 16H10V18H31.42C31.6852 18 31.9396 17.8946 32.1271 17.7071C32.3146 17.5196 32.42 17.2652 32.42 17C32.42 16.7348 32.3146 16.4804 32.1271 16.2929C31.9396 16.1054 31.6852 16 31.42 16Z" fill="black" fill-opacity="0.87"/>
<path d="M31.42 24H10V26H31.42C31.6852 26 31.9396 25.8946 32.1271 25.7071C32.3146 25.5196 32.42 25.2652 32.42 25C32.42 24.7348 32.3146 24.4804 32.1271 24.2929C31.9396 24.1054 31.6852 24 31.42 24Z" fill="black" fill-opacity="0.87"/>
</g>
<defs>
<clipPath id="clip0_55_195">
<rect width="36" height="36" fill="white"/>
</clipPath>
</defs>
</svg>
