<svg width="46" height="26" viewBox="0 0 46 26" fill="none" xmlns="http://www.w3.org/2000/svg">
<path d="M3 8V5C3 4.45 3.19567 3.979 3.587 3.587C3.979 3.19567 4.45 3 5 3H20C20.55 3 21.021 3.19567 21.413 3.587C21.8043 3.979 22 4.45 22 5V8H3ZM8 10V21H5C4.45 21 3.979 20.8043 3.587 20.413C3.19567 20.021 3 19.55 3 19V10H8ZM17 10H22V19C22 19.55 21.8043 20.021 21.413 20.413C21.021 20.8043 20.55 21 20 21H17V10ZM15 10V21H10V10H15Z" fill="black" fill-opacity="0.87"/>
<path d="M34 17.4L28 11.4L29.4 10L34 14.6L38.6 10L40 11.4L34 17.4Z" fill="black" fill-opacity="0.87"/>
</svg>
