<svg width="16" height="20" viewBox="0 0 16 20" fill="none" xmlns="http://www.w3.org/2000/svg">
<path d="M14 20H2C1.46957 20 0.960859 19.7893 0.585786 19.4142C0.210714 19.0391 0 18.5304 0 18V2C0 1.46957 0.210714 0.960862 0.585786 0.585789C0.960859 0.210716 1.46957 2.54397e-06 2 2.54397e-06H9C9.00896 -0.00117069 9.01804 -0.00117069 9.027 2.54397e-06H9.033C9.04245 0.00295422 9.05216 0.00496405 9.062 0.00600259C9.15 0.0120026 9.237 0.0290025 9.321 0.0570025H9.363C9.38146 0.0699214 9.39884 0.0843009 9.415 0.100002C9.52393 0.148445 9.6232 0.216204 9.708 0.300002L15.708 6.3C15.7918 6.38479 15.8596 6.48406 15.908 6.593C15.9167 6.61463 15.9244 6.63665 15.931 6.659L15.941 6.687C15.969 6.77 15.985 6.857 15.99 6.945C15.9909 6.95496 15.9932 6.96474 15.997 6.974V6.98C15.9986 6.98656 15.9996 6.99326 16 7V18C16 18.5304 15.7893 19.0391 15.4142 19.4142C15.0391 19.7893 14.5304 20 14 20ZM12.261 13V17H14.5V16.33H13.074V13H12.261ZM10.861 14.258L10.787 15.917V17H11.602V13H10.545L9.788 15.894L9.028 13H7.967V17H8.78V15.917L8.7 14.25L9.5 17H10.054L10.861 14.258ZM4.712 13V13.673H5.69V17H6.505V13.673H7.5V13H4.712ZM2.312 15.289H3.512V17H4.322V13H3.512V14.618H2.312V13H1.5V17H2.312V15.289ZM9 2V7H14L9 2Z" fill="black" fill-opacity="0.87"/>
</svg>
