<svg width="56" height="56" viewBox="0 0 56 56" fill="none" xmlns="http://www.w3.org/2000/svg">
<path d="M26.5 25.53V53.1575L24.6562 54.0793L0.6875 42.1238V12.1628L24.6562 0.178467L48.625 12.1628V33.5964H44.9375V16.3113L26.5 25.53ZM24.6562 4.3269L17.7134 7.78394L35.6035 16.8298L42.6616 13.3152L24.6562 4.3269ZM22.8125 49.0378V25.53L4.375 16.3113V39.8191L22.8125 49.0378ZM6.65088 13.3152L24.6562 22.3035L31.5127 18.9041L13.5938 9.85815L6.65088 13.3152ZM37.5625 48.3464V44.6589H56V48.3464H37.5625ZM37.5625 37.2839H56V40.9714H37.5625V37.2839ZM30.1875 55.7214V52.0339H33.875V55.7214H30.1875ZM30.1875 40.9714V37.2839H33.875V40.9714H30.1875ZM30.1875 48.3464V44.6589H33.875V48.3464H30.1875ZM37.5625 55.7214V52.0339H56V55.7214H37.5625Z" fill="#004C6C"/>
</svg>
