<svg width="70" height="55" viewBox="0 0 70 55" fill="none" xmlns="http://www.w3.org/2000/svg">
<path d="M0.921783 11.6056C0.921783 8.6965 2.07742 5.90655 4.13446 3.84951C6.1915 1.79247 8.98144 0.636841 11.8905 0.636841H58.203C61.1121 0.636841 63.9021 1.79247 65.9591 3.84951C68.0162 5.90655 69.1718 8.6965 69.1718 11.6056V43.2931C69.1718 46.2022 68.0162 48.9921 65.9591 51.0492C63.9021 53.1062 61.1121 54.2618 58.203 54.2618H11.8905C8.98144 54.2618 6.1915 53.1062 4.13446 51.0492C2.07742 48.9921 0.921783 46.2022 0.921783 43.2931V11.6056ZM11.8905 5.51184C10.2744 5.51184 8.7244 6.15386 7.5816 7.29666C6.4388 8.43946 5.79678 9.98943 5.79678 11.6056V15.2618H64.2968V11.6056C64.2968 9.98943 63.6548 8.43946 62.512 7.29666C61.3692 6.15386 59.8192 5.51184 58.203 5.51184H11.8905ZM5.79678 43.2931C5.79678 44.9093 6.4388 46.4592 7.5816 47.602C8.7244 48.7448 10.2744 49.3868 11.8905 49.3868H58.203C59.8192 49.3868 61.3692 48.7448 62.512 47.602C63.6548 46.4592 64.2968 44.9093 64.2968 43.2931V20.1368H5.79678V43.2931ZM47.2343 34.7618H54.5468C55.1932 34.7618 55.8132 35.0186 56.2704 35.4758C56.7275 35.9329 56.9843 36.5529 56.9843 37.1993C56.9843 37.8458 56.7275 38.4658 56.2704 38.9229C55.8132 39.38 55.1932 39.6368 54.5468 39.6368H47.2343C46.5878 39.6368 45.9678 39.38 45.5107 38.9229C45.0536 38.4658 44.7968 37.8458 44.7968 37.1993C44.7968 36.5529 45.0536 35.9329 45.5107 35.4758C45.9678 35.0186 46.5878 34.7618 47.2343 34.7618Z" fill="#9E9E9E"/>
</svg>
