<svg width="51" height="57" viewBox="0 0 51 57" fill="none" xmlns="http://www.w3.org/2000/svg">
<path d="M36.5707 32.0845C35.1746 33.5341 33.5001 34.6869 31.6478 35.4739C29.7955 36.2609 27.8033 36.6658 25.7907 36.6645C21.8707 36.6645 17.9707 35.1446 15.0107 32.0846C9.07073 25.9846 9.07073 16.0646 15.0107 9.96455C16.4056 8.51335 18.0798 7.35946 19.9325 6.57235C21.7851 5.78524 23.7778 5.38119 25.7907 5.38455C29.8507 5.38455 33.6907 7.00455 36.5707 9.96455C39.4501 12.9238 41.0518 16.8957 41.0307 21.0246C41.0307 25.2046 39.4507 29.1245 36.5707 32.0845ZM22.9107 25.6846L24.5707 29.1246C25.0707 30.1646 26.5107 30.1646 27.0507 29.1246L28.7107 25.6846C28.9107 25.2646 29.2907 24.9845 29.7307 24.9246L33.4307 24.3645C34.5307 24.2045 34.9707 22.8046 34.1707 22.0046L31.6107 19.4446C31.2307 19.0645 31.0907 18.5045 31.2707 17.9846L32.4507 14.5645C32.8507 13.4245 31.7107 12.3446 30.6307 12.8246L26.3507 14.7446C26.0107 14.9045 25.6107 14.9045 25.2707 14.7446L20.9907 12.8246C19.8907 12.3446 18.7707 13.4245 19.1707 14.5646L20.3507 17.9846C20.4327 18.2358 20.4443 18.5046 20.3844 18.762C20.3244 19.0193 20.1952 19.2554 20.0107 19.4446L17.4507 22.0046C16.6307 22.8046 17.0907 24.2045 18.1907 24.3645L21.8907 24.9246C22.1094 24.9596 22.3164 25.0471 22.494 25.1794C22.6716 25.3117 22.8146 25.485 22.9107 25.6846Z" fill="#004C6C"/>
<path d="M46.3548 56.4247L46.3488 56.4147L33.8788 56.4147C32.5388 56.4147 31.3348 55.7447 30.6748 54.5847L25.7708 46.5207L20.8768 54.5647C20.1968 55.7247 18.9768 56.4247 17.6368 56.4247L13.5568 56.4247L13.5628 56.4147L4.44076 56.4147C1.56076 56.4147 -0.243237 53.3047 1.19676 50.7647C3.82335 46.0977 7.54309 42.1378 12.0368 39.2247C12.7428 38.6767 13.5228 38.2447 14.3508 37.9387C9.13076 34.2227 5.71076 28.0327 5.71076 21.0247C5.71076 9.65868 14.7028 0.444679 25.7908 0.444678C36.8828 0.444677 45.8708 9.65868 45.8708 21.0247C45.8708 28.0467 42.4408 34.2487 37.2028 37.9627C38.0352 38.2689 38.8157 38.7013 39.5168 39.2447C43.9968 42.1647 47.7168 46.1247 50.3568 50.7847C51.7768 53.3047 49.9568 56.4247 47.0568 56.4247L46.3568 56.4247L46.3548 56.4247ZM32.4948 40.4287C31.3316 40.8515 30.1308 41.1629 28.9088 41.3587L28.6208 41.8307L36.6968 54.4447L45.1968 54.4447C41.9874 49.2155 37.8534 44.6139 32.9968 40.8647C32.8308 40.7147 32.6648 40.5707 32.4948 40.4287ZM6.28676 54.4447L14.8268 54.4447L23.1708 41.4307C21.764 41.2432 20.3819 40.9032 19.0488 40.4167C18.8729 40.5616 18.7009 40.7109 18.5328 40.8647C13.6603 44.6105 9.51063 49.2122 6.28676 54.4447ZM38.2508 8.22468C36.6355 6.54529 34.6972 5.21 32.5524 4.29918C30.4077 3.38836 28.1009 2.92081 25.7708 2.92468C21.0708 2.92468 16.6308 4.80468 13.2708 8.22468C6.39076 15.2847 6.39076 26.7647 13.2708 33.8247C14.8913 35.4995 16.8322 36.8312 18.9779 37.7408C21.1236 38.6503 23.4303 39.119 25.7608 39.119C28.0913 39.119 30.3979 38.6503 32.5436 37.7408C34.6893 36.8312 36.6302 35.4995 38.2508 33.8247C41.5922 30.4044 43.453 25.8062 43.4308 21.0247C43.4308 16.1847 41.5908 11.6447 38.2508 8.22468Z" fill="#004C6C"/>
</svg>
