<svg width="24" height="24" viewBox="0 0 24 24" fill="none" xmlns="http://www.w3.org/2000/svg">
<path fill-rule="evenodd" clip-rule="evenodd" d="M10.3168 0.69864L8.5088 2.50504C8.36281 2.65109 8.16491 2.73336 7.9584 2.73384H5.1136C3.7984 2.73384 2.7328 3.79944 2.7328 5.11464V7.95944C2.7324 8.16643 2.65015 8.36486 2.504 8.51144L0.696003 10.3178C0.249687 10.7643 -0.0010376 11.3698 -0.0010376 12.001C-0.0010376 12.6323 0.249687 13.2378 0.696003 13.6842L2.504 15.4922C2.65005 15.6382 2.73232 15.8361 2.7328 16.0426V18.8874C2.7328 20.2026 3.7984 21.2682 5.1136 21.2682H7.9584C8.16539 21.2686 8.36382 21.3509 8.5104 21.497L10.3168 23.305C10.7633 23.7514 11.3687 24.0021 12 24.0021C12.6313 24.0021 13.2367 23.7514 13.6832 23.305L15.4912 21.497C15.6372 21.351 15.8351 21.2687 16.0416 21.2682H18.8864C20.2016 21.2682 21.2672 20.2026 21.2672 18.8874V16.0426C21.2676 15.8357 21.3499 15.6372 21.496 15.4906L23.304 13.6842C23.7503 13.2378 24.001 12.6323 24.001 12.001C24.001 11.3698 23.7503 10.7643 23.304 10.3178L21.496 8.50984C21.35 8.36385 21.2677 8.16595 21.2672 7.95944V5.11464C21.2672 3.79944 20.2016 2.73384 18.8864 2.73384H16.0416C15.8345 2.73378 15.636 2.65148 15.4896 2.50504L13.6832 0.69704C13.2367 0.250725 12.6313 0 12 0C11.3687 0 10.7633 0.250725 10.3168 0.69704V0.69864ZM7.4336 15.4346L15.4336 7.43464L16.5664 8.56744L8.5664 16.5674L7.4336 15.4346ZM8 8.00104V9.60104H9.6V8.00104H8ZM14.4 16.001H16V14.401H14.4V16.001Z" fill="white"/>
</svg>
