<svg width="27" height="28" viewBox="0 0 27 28" fill="none" xmlns="http://www.w3.org/2000/svg">
<path d="M9.95658 25.1159C9.29281 25.1159 8.85029 24.6734 8.85029 24.0096V20.6908H4.42515C3.20824 20.6908 2.21259 19.6951 2.21259 18.4782V5.2028C2.21259 3.98589 3.20824 2.99023 4.42515 2.99023H22.1257C23.3426 2.99023 24.3383 3.98589 24.3383 5.2028V18.4782C24.3383 19.6951 23.3426 20.6908 22.1257 20.6908H15.3774L11.2841 24.784C11.0629 25.0053 10.8416 25.1159 10.5097 25.1159H9.95658ZM11.0629 18.4782V21.9077L14.4923 18.4782H22.1257V5.2028H4.42515V18.4782H11.0629ZM18.0325 7.41537L16.4837 10.7342H18.8069V15.1594H14.3817V10.513L15.8199 7.41537H18.0325ZM11.3947 7.41537L9.84595 10.7342H12.1691V15.1594H7.74401V10.513L9.18218 7.41537H11.3947Z" fill="#6D6D6D"/>
</svg>
