<svg width="23" height="22" viewBox="0 0 23 22" fill="none" xmlns="http://www.w3.org/2000/svg">
<path d="M11 9.3125V20.5508L10.25 20.9258L0.5 16.0625V3.875L10.25 -1L20 3.875V12.5938H18.5V5.5625L11 9.3125ZM10.25 0.6875L7.42578 2.09375L14.7031 5.77344L17.5742 4.34375L10.25 0.6875ZM9.5 18.875V9.3125L2 5.5625V15.125L9.5 18.875ZM2.92578 4.34375L10.25 8L13.0391 6.61719L5.75 2.9375L2.92578 4.34375ZM15.5 18.5938V17.0938H23V18.5938H15.5ZM15.5 14.0938H23V15.5938H15.5V14.0938ZM12.5 21.5938V20.0938H14V21.5938H12.5ZM12.5 15.5938V14.0938H14V15.5938H12.5ZM12.5 18.5938V17.0938H14V18.5938H12.5ZM11 18.875H11.0117H11ZM15.5 21.5938V20.0938H23V21.5938H15.5Z" fill="white"/>
</svg>
