<svg width="21" height="20" viewBox="0 0 21 20" fill="none" xmlns="http://www.w3.org/2000/svg">
<path d="M12.5 3.50006L16.5 7.50006M1 19.0001H5L18 6.00006C18.5304 5.46963 18.8284 4.7502 18.8284 4.00006C18.8284 3.24991 18.5304 2.53049 18 2.00006C17.4696 1.46962 16.7501 1.17163 16 1.17163C15.2499 1.17163 14.5304 1.46962 14 2.00006L1 15.0001V19.0001Z" stroke="white" stroke-width="2" stroke-linecap="round" stroke-linejoin="round"/>
<path d="M11 6L6 1L2 5L7 10M6 6L4.5 7.5M15 10L20 15L16 19L11 14M15 15L13.5 16.5" stroke="white" stroke-width="2" stroke-linecap="round" stroke-linejoin="round"/>
</svg>
