<?xml version="1.0" encoding="utf-8"?>
<!-- Generator: Adobe Illustrator 12.0.0, SVG Export Plug-In . SVG Version: 6.00 Build 51448)  -->
<!DOCTYPE svg PUBLIC "-//W3C//DTD SVG 1.1//EN" "http://www.w3.org/Graphics/SVG/1.1/DTD/svg11.dtd" [
	<!ENTITY ns_svg "http://www.w3.org/2000/svg">
	<!ENTITY ns_xlink "http://www.w3.org/1999/xlink">
]>
<svg  version="1.1" id="Layer_1" xmlns="&ns_svg;" xmlns:xlink="&ns_xlink;" width="250.979" height="244.246"
	 viewBox="0 0 250.979 244.246" overflow="visible" enable-background="new 0 0 250.979 244.246" xml:space="preserve">
<g id="Layer_4">
	<path fill="#D6F0FF" d="M250.979,109.715c0-40.701-33.074-73.693-73.871-73.693c-0.635,0-1.262,0.029-1.893,0.046
		C162.334,14.476,138.717,0,111.701,0C70.903,0,37.83,32.995,37.83,73.696c0,0.529,0.028,1.049,0.04,1.576
		C15.556,87.952,0.5,111.88,0.5,139.332c0,40.699,33.073,73.691,73.872,73.691c2.319,0,4.611-0.122,6.878-0.329
		c13.551,16.376,34.051,26.813,56.998,26.813c37.711,0,68.793-28.192,73.289-64.596
		C234.988,162.563,250.979,138.007,250.979,109.715z"/>
</g>
<g id="Layer_2">
	<rect x="46.401" y="52.671" fill="#FFFFFF" width="117.766" height="148.542"/>
	<g opacity="0.33">
		
			<rect x="47.401" y="52.671" fill="#FFFFFF" stroke="#6E6E96" stroke-width="3" stroke-linecap="round" stroke-linejoin="round" width="145.377" height="141.454"/>
		
			<rect x="144.564" y="101.244" fill="#BDDFFF" stroke="#6E6E96" stroke-width="3" stroke-linecap="round" stroke-linejoin="round" width="15.658" height="24.31"/>
		
			<rect x="144.564" y="131.445" fill="#BDDFFF" stroke="#6E6E96" stroke-width="3" stroke-linecap="round" stroke-linejoin="round" width="15.658" height="24.16"/>
		
			<rect x="122.5" y="70.671" fill="#BDDFFF" stroke="#6E6E96" stroke-width="3" stroke-linecap="round" stroke-linejoin="round" width="15.66" height="24.677"/>
		
			<rect x="122.5" y="101.244" fill="#BDDFFF" stroke="#6E6E96" stroke-width="3" stroke-linecap="round" stroke-linejoin="round" width="15.66" height="24.31"/>
		
			<rect x="166.629" y="101.244" fill="#BDDFFF" stroke="#6E6E96" stroke-width="3" stroke-linecap="round" stroke-linejoin="round" width="18.425" height="24.31"/>
		
			<rect x="144.564" y="70.671" fill="#BDDFFF" stroke="#6E6E96" stroke-width="3" stroke-linecap="round" stroke-linejoin="round" width="15.658" height="24.677"/>
		
			<rect x="122.5" y="131.445" fill="#BDDFFF" stroke="#6E6E96" stroke-width="3" stroke-linecap="round" stroke-linejoin="round" width="15.66" height="24.16"/>
		
			<rect x="166.629" y="70.671" fill="#BDDFFF" stroke="#6E6E96" stroke-width="3" stroke-linecap="round" stroke-linejoin="round" width="18.425" height="24.677"/>
		
			<rect x="166.629" y="131.445" fill="#BDDFFF" stroke="#6E6E96" stroke-width="3" stroke-linecap="round" stroke-linejoin="round" width="18.425" height="24.16"/>
		
			<rect x="55.025" y="101.244" fill="#BDDFFF" stroke="#6E6E96" stroke-width="3" stroke-linecap="round" stroke-linejoin="round" width="16.942" height="24.31"/>
		
			<rect x="55.025" y="70.671" fill="#BDDFFF" stroke="#6E6E96" stroke-width="3" stroke-linecap="round" stroke-linejoin="round" width="16.942" height="24.677"/>
		
			<rect x="55.025" y="131.445" fill="#BDDFFF" stroke="#6E6E96" stroke-width="3" stroke-linecap="round" stroke-linejoin="round" width="16.942" height="24.16"/>
		
			<rect x="78.373" y="131.445" fill="#BDDFFF" stroke="#6E6E96" stroke-width="3" stroke-linecap="round" stroke-linejoin="round" width="15.657" height="24.16"/>
		
			<rect x="78.373" y="101.244" fill="#BDDFFF" stroke="#6E6E96" stroke-width="3" stroke-linecap="round" stroke-linejoin="round" width="15.657" height="24.31"/>
		
			<rect x="100.437" y="131.445" fill="#BDDFFF" stroke="#6E6E96" stroke-width="3" stroke-linecap="round" stroke-linejoin="round" width="15.659" height="24.16"/>
		
			<rect x="100.437" y="70.671" fill="#BDDFFF" stroke="#6E6E96" stroke-width="3" stroke-linecap="round" stroke-linejoin="round" width="15.659" height="24.677"/>
		
			<rect x="100.437" y="101.244" fill="#BDDFFF" stroke="#6E6E96" stroke-width="3" stroke-linecap="round" stroke-linejoin="round" width="15.659" height="24.31"/>
		
			<rect x="78.373" y="70.671" fill="#BDDFFF" stroke="#6E6E96" stroke-width="3" stroke-linecap="round" stroke-linejoin="round" width="15.657" height="24.677"/>
		
			<rect x="43.483" y="52.671" fill="#D5B697" stroke="#6E6E96" stroke-width="3" stroke-linecap="round" stroke-linejoin="round" width="153.225" height="7.074"/>
		
			<rect x="144.564" y="161.894" fill="#BDDFFF" stroke="#6E6E96" stroke-width="3" stroke-linecap="round" stroke-linejoin="round" width="15.658" height="24.161"/>
		
			<rect x="166.629" y="161.894" fill="#BDDFFF" stroke="#6E6E96" stroke-width="3" stroke-linecap="round" stroke-linejoin="round" width="18.425" height="24.161"/>
		
			<rect x="55.025" y="161.894" fill="#BDDFFF" stroke="#6E6E96" stroke-width="3" stroke-linecap="round" stroke-linejoin="round" width="16.942" height="24.161"/>
		
			<rect x="78.373" y="161.894" fill="#BDDFFF" stroke="#6E6E96" stroke-width="3" stroke-linecap="round" stroke-linejoin="round" width="15.657" height="24.161"/>
		
			<rect x="100.437" y="161.894" fill="#E4BC96" stroke="#6E6E96" stroke-width="3" stroke-linecap="round" stroke-linejoin="round" width="37.784" height="32.23"/>
		
			<line fill="none" stroke="#6E6E96" stroke-width="3" stroke-linecap="round" stroke-linejoin="round" x1="119.113" y1="161.894" x2="119.113" y2="194.125"/>
	</g>
	<rect x="85.833" y="191.556" fill="#D6F0FF" width="38" height="18"/>
	
		<line fill="none" stroke="#FFFFFF" stroke-width="5" stroke-linecap="round" stroke-linejoin="round" x1="80.5" y1="19.098" x2="101.625" y2="19.098"/>
	
		<line fill="none" stroke="#FFFFFF" stroke-width="5" stroke-linecap="round" stroke-linejoin="round" x1="90.698" y1="30.025" x2="115.465" y2="30.025"/>
</g>
<g id="Layer_3">
	<g>
		
			<rect x="156.502" y="21.587" fill="#EBEBF7" stroke="#CCCCDE" stroke-width="3" stroke-linecap="round" stroke-linejoin="round" width="67.122" height="9.561"/>
		
			<rect x="137.1" y="30.982" fill="#FFFFFF" stroke="#CCCCDE" stroke-width="3" stroke-linecap="round" stroke-linejoin="round" width="105.589" height="169.355"/>
		
			<rect x="146.174" y="39.445" fill="#CFE7FF" stroke="#CCCCDE" stroke-width="3" stroke-linecap="round" stroke-linejoin="round" width="88.036" height="160.893"/>
		<polygon opacity="0.49" fill="#FFFFFF" enable-background="new    " points="147.297,123.091 229.938,40.452 169.996,40.619 
			147.297,63.995 		"/>
		<polygon opacity="0.27" fill="#FFFFFF" enable-background="new    " points="233.478,62.664 146.653,149.486 170.497,150.176 
			233.478,87.196 		"/>
		
			<rect x="146.174" y="149.544" fill="#CFE7FF" stroke="#CCCCDE" stroke-width="3" stroke-linecap="round" stroke-linejoin="round" width="88.036" height="50.793"/>
		<g opacity="0.37">
			<polygon opacity="0.49" fill="#FFFFFF" enable-background="new    " points="169.293,162.003 147.475,183.188 147.475,196.125 
				169.293,174.94 			"/>
			<polyline opacity="0.49" fill="#FFFFFF" enable-background="new    " points="147.349,173.376 159.062,162.003 147.349,162.003 
							"/>
		</g>
		<g opacity="0.37">
			<polygon opacity="0.49" fill="#FFFFFF" enable-background="new    " points="200.758,162.003 179.573,183.188 179.573,196.125 
				200.758,174.94 			"/>
			<polyline opacity="0.49" fill="#FFFFFF" enable-background="new    " points="180.294,173.376 191.667,162.003 180.294,162.003 
							"/>
		</g>
		<g opacity="0.37">
			<polygon opacity="0.49" fill="#FFFFFF" enable-background="new    " points="233.018,162.003 209.48,183.188 209.48,196.125 
				233.018,174.94 			"/>
			<polyline opacity="0.49" fill="#FFFFFF" enable-background="new    " points="210.28,173.376 222.918,162.003 210.28,162.003 			
				"/>
		</g>
		<line fill="none" stroke="#CCCCDE" stroke-width="3" x1="157.393" y1="39.445" x2="157.393" y2="149.544"/>
		<line fill="none" stroke="#CCCCDE" stroke-width="3" x1="168.627" y1="39.445" x2="168.627" y2="149.544"/>
		<line fill="none" stroke="#CCCCDE" stroke-width="3" x1="179.579" y1="149.544" x2="179.579" y2="39.445"/>
		<line fill="none" stroke="#CCCCDE" stroke-width="3" x1="191.093" y1="39.445" x2="191.093" y2="149.544"/>
		<line fill="none" stroke="#CCCCDE" stroke-width="3" x1="202.045" y1="149.544" x2="202.045" y2="39.445"/>
		<line fill="none" stroke="#CCCCDE" stroke-width="3" x1="212.716" y1="149.544" x2="212.716" y2="39.445"/>
		<line fill="none" stroke="#CCCCDE" stroke-width="3" x1="223.388" y1="39.445" x2="223.388" y2="149.544"/>
		
			<line fill="none" stroke="#CCCCDE" stroke-width="3" stroke-linecap="round" stroke-linejoin="round" x1="146.174" y1="62.66" x2="234.21" y2="62.66"/>
		
			<line fill="none" stroke="#CCCCDE" stroke-width="3" stroke-linecap="round" stroke-linejoin="round" x1="146.174" y1="85.125" x2="234.21" y2="85.125"/>
		
			<line fill="none" stroke="#CCCCDE" stroke-width="3" stroke-linecap="round" stroke-linejoin="round" x1="234.21" y1="106.469" x2="146.174" y2="106.469"/>
		<line fill="none" stroke="#CCCCDE" stroke-width="3" x1="146.174" y1="127.811" x2="234.21" y2="127.811"/>
		
			<rect x="170.592" y="157.718" fill="#F0F0FF" stroke="#CCCCDE" stroke-width="3" stroke-linecap="round" stroke-linejoin="round" width="8.981" height="42.619"/>
		
			<rect x="200.5" y="155.774" fill="#F0F0FF" stroke="#CCCCDE" stroke-width="3" stroke-linecap="round" stroke-linejoin="round" width="8.425" height="44.563"/>
		
			<rect x="146.174" y="149.544" fill="#F0F0FF" stroke="#CCCCDE" stroke-width="3" stroke-linecap="round" stroke-linejoin="round" width="88.036" height="12.459"/>
		
			<rect x="175.319" y="14.078" fill="#EBEBF7" stroke="#CCCCDE" stroke-width="3" stroke-linecap="round" stroke-linejoin="round" width="29.486" height="7.509"/>
		
			<line fill="none" stroke="#CCCCDE" stroke-width="3" stroke-linecap="round" stroke-linejoin="round" x1="190.063" y1="14.078" x2="190.063" y2="1.826"/>
		
			<rect x="133.373" y="196.051" fill="#F0F0FF" stroke="#CCCCDE" stroke-width="3" stroke-linecap="round" stroke-linejoin="round" width="114.727" height="8.706"/>
	</g>
</g>
<g id="Layer_1_copy">
</g>
<g id="Layer_6">
	<g>
		<polygon fill="#FFFFFF" stroke="#CCCCDE" stroke-width="3" points="98.442,204.757 9.331,204.757 9.331,128.594 53.887,100.072 
			98.442,128.594 		"/>
		<polygon fill="#E0E6FC" stroke="#CCCCDE" stroke-width="3" stroke-linecap="round" stroke-linejoin="round" points="
			53.887,95.235 1.5,127.083 1.5,132.321 9.331,132.321 53.887,104.815 98.321,132.684 105.193,132.791 105.193,127.083 		"/>
		
			<rect x="17.744" y="166.613" fill="#D4EAFF" stroke="#CCCCDE" stroke-width="3" stroke-linecap="round" stroke-linejoin="round" width="30.25" height="19.961"/>
		
			<rect x="9.331" y="192.626" fill="#FCEBE3" stroke="#CCCCDE" stroke-width="3" stroke-linecap="round" stroke-linejoin="round" width="89.111" height="12.131"/>
		<path fill="#CCE8D6" stroke="#CCCCDE" stroke-width="3" stroke-linecap="round" stroke-linejoin="round" d="M49.257,204.757
			c0-0.023,0.004-0.045,0.004-0.069c0-3.756-2.626-6.801-5.865-6.801c-1.5,0-2.863,0.659-3.9,1.731
			c-0.807-4.465-4.218-7.818-8.308-7.818c-1.86,0-3.578,0.703-4.977,1.881c-1.759-2.805-4.604-4.637-7.822-4.637
			c-4.419,0-8.138,3.438-9.296,8.133c-0.435-0.111-0.884-0.176-1.348-0.176c-3.449,0-6.245,3.242-6.245,7.246
			c0,0.172,0.012,0.34,0.021,0.51H49.257L49.257,204.757z"/>
		
			<rect x="61.471" y="166.613" fill="#FFDEDE" stroke="#CCCCDE" stroke-width="3" stroke-linecap="round" stroke-linejoin="round" width="23.24" height="38.145"/>
		
			<line fill="none" stroke="#CCCCDE" stroke-width="3" stroke-linecap="round" stroke-linejoin="round" x1="9.331" y1="159.507" x2="98.442" y2="159.507"/>
		<g>
			
				<rect x="17.744" y="133.69" fill="#D4EAFF" stroke="#CCCCDE" stroke-width="3" stroke-linecap="round" stroke-linejoin="round" width="16.276" height="18.535"/>
			
				<line fill="none" stroke="#CCCCDE" stroke-width="3" stroke-linecap="round" stroke-linejoin="round" x1="17.744" y1="142.957" x2="34.021" y2="142.957"/>
		</g>
		<g>
			
				<rect x="73.422" y="133.69" fill="#D4EAFF" stroke="#CCCCDE" stroke-width="3" stroke-linecap="round" stroke-linejoin="round" width="16.277" height="18.535"/>
			
				<line fill="none" stroke="#CCCCDE" stroke-width="3" stroke-linecap="round" stroke-linejoin="round" x1="73.422" y1="142.957" x2="89.699" y2="142.957"/>
		</g>
		<g>
			
				<rect x="45.664" y="133.69" fill="#D4EAFF" stroke="#CCCCDE" stroke-width="3" stroke-linecap="round" stroke-linejoin="round" width="16.276" height="18.535"/>
			
				<line fill="none" stroke="#CCCCDE" stroke-width="3" stroke-linecap="round" stroke-linejoin="round" x1="45.664" y1="142.957" x2="61.941" y2="142.957"/>
		</g>
		
			<line fill="none" stroke="#CCCCDE" stroke-width="3" stroke-linecap="round" stroke-linejoin="round" x1="32.906" y1="166.613" x2="32.906" y2="186.574"/>
		
			<rect x="58.325" y="200.4" fill="#F0F0FF" stroke="#CCCCDE" stroke-width="3" stroke-linecap="round" stroke-linejoin="round" width="29.533" height="4.357"/>
		<path fill="#CCE8D6" stroke="#CCCCDE" stroke-width="3" stroke-linecap="round" stroke-linejoin="round" d="M111.875,204.757
			c0-0.017,0.003-0.03,0.003-0.047c0-2.513-1.756-4.549-3.924-4.549c-1.002,0-1.916,0.44-2.609,1.158
			c-0.539-2.986-2.82-5.229-5.556-5.229c-1.244,0-2.393,0.47-3.328,1.258c-1.176-1.877-3.079-3.102-5.231-3.102
			c-2.955,0-5.442,2.301-6.217,5.438c-0.291-0.074-0.592-0.116-0.901-0.116c-2.308,0-4.177,2.169-4.177,4.846
			c0,0.114,0.007,0.229,0.016,0.342H111.875L111.875,204.757z"/>
		
			<line fill="none" stroke="#CCCCDE" stroke-width="3" stroke-linecap="round" stroke-linejoin="round" x1="65.345" y1="185.875" x2="65.345" y2="181.035"/>
	</g>
</g>
<g id="Layer_5">
	<rect x="51.171" y="186.711" opacity="0.54" fill="#FFFFFF" enable-background="new    " width="162.008" height="6.889"/>
	<g>
		<path fill="#6E6E96" d="M153.006,224.118H99.544l0,0c-1.401,0-2.539,1.14-2.539,2.54c0,1.402,1.137,2.539,2.539,2.539l0,0h53.462
			l0,0c1.401,0,2.539-1.137,2.539-2.539C155.545,225.257,154.406,224.118,153.006,224.118L153.006,224.118z"/>
	</g>
	<path fill="#B8CFFF" stroke="#6E6E96" stroke-width="3" d="M106.927,183.931L106.927,183.931l-0.001-49.114l0.001-6.761H69.31
		c-7.362,0-11.025,5.876-11.804,9.511L50.238,178l-0.04-0.005c-0.779,3.639-1.417,9.655-1.417,13.374v28.53
		c0,3.719,3.042,6.759,6.759,6.759h12.558l119.224-0.002h27.779V190.69l0.003-6.757H106.927V183.931z"/>
	<path fill="none" stroke="#6E6E96" stroke-width="3" stroke-linecap="round" stroke-linejoin="round" d="M59.745,174.932v31.582
		h2.121c0,0,5.072-8.789,17.166-8.789h17.884v-23.239"/>
	<rect x="53.938" y="208.98" opacity="0.2" fill="#6E6E96" enable-background="new    " width="160.089" height="5.051"/>
	<path fill="#CFDEFF" d="M59.33,138.49l-7.267,40.432l-0.04-0.005c-0.779,3.639-1.417,9.656-1.417,13.373v28.531
		c0,2.718,1.627,5.066,3.952,6.138c-0.394-0.856-0.621-1.806-0.621-2.807v-28.531c0-3.717,0.638-9.735,1.416-13.373l0.04,0.005
		l7.268-40.433c0.78-3.636,4.442-9.511,11.804-9.511h34.287v-3.33H71.134C63.773,128.978,60.11,134.854,59.33,138.49z"/>
	<path fill="#F0F0FF" d="M217.651,224.426c0,1.994-1.629,3.626-3.624,3.626H49.135c-1.994,0-3.627-1.632-3.627-3.626v-6.77
		c0-1.995,1.633-3.627,3.627-3.627h164.892c1.994,0,3.624,1.632,3.624,3.627V224.426z"/>
	<path opacity="0.15" fill="#6E6E96" enable-background="new    " d="M213.661,221.12H48.769c-1.995,0-3.627-1.634-3.627-3.628
		v5.474c0,1.995,1.633,3.628,3.627,3.628H213.66c1.995,0,3.626-1.633,3.626-3.628v-5.474
		C217.287,219.486,215.656,221.12,213.661,221.12z"/>
	<path fill="none" stroke="#6E6E96" stroke-width="3" d="M217.651,224.426c0,1.994-1.629,3.626-3.624,3.626H49.135
		c-1.994,0-3.627-1.632-3.627-3.626v-6.77c0-1.995,1.633-3.627,3.627-3.627h164.892c1.994,0,3.624,1.632,3.624,3.627V224.426z"/>
	<path fill="#A0A0BD" stroke="#6E6E96" stroke-width="3" d="M56.27,228.053c0,0-3.605-30.128,19.7-30.128
		c19.663,0,14.855,0,14.855,0s18.329-0.071,18.329,30.128H56.27z"/>
	<circle fill="#BABADB" cx="81.112" cy="223.735" r="17.954"/>
	<path fill="#A0A0BD" stroke="#6E6E96" stroke-width="3" d="M206.359,228.053h-52.885c0,0-3.628-30.128,23.306-30.128
		C176.781,197.925,206.359,193.551,206.359,228.053z"/>
	<circle fill="#BABADB" cx="179.735" cy="223.735" r="17.954"/>
	<g>
		<circle fill="#F0F0FF" cx="81.359" cy="223.882" r="5.984"/>
		<path fill="#6E6E96" d="M84.787,223.882c0,0.917-0.357,1.778-1.004,2.424c-0.648,0.649-1.509,1.006-2.424,1.006
			c-1.891,0-3.43-1.539-3.43-3.431s1.539-3.429,3.43-3.429C83.25,220.453,84.787,221.991,84.787,223.882z M81.359,215.343
			c-4.709,0-8.539,3.83-8.539,8.538c0,4.709,3.83,8.54,8.539,8.54c2.281,0,4.425-0.889,6.037-2.501
			c1.613-1.613,2.502-3.758,2.502-6.038C89.898,219.173,86.067,215.343,81.359,215.343z"/>
	</g>
	<g>
		<circle fill="#F0F0FF" cx="179.921" cy="223.882" r="5.984"/>
		<path fill="#6E6E96" d="M183.351,223.882c0,1.893-1.538,3.43-3.43,3.43c-1.893,0-3.429-1.537-3.429-3.43
			c0-0.917,0.355-1.777,1.004-2.424c0.649-0.648,1.509-1.005,2.424-1.005C181.812,220.453,183.351,221.991,183.351,223.882z
			 M179.921,215.343c-2.28,0-4.425,0.887-6.036,2.502c-1.613,1.61-2.501,3.755-2.501,6.035c0,4.708,3.829,8.539,8.538,8.539
			c4.708,0,8.539-3.831,8.539-8.539S184.629,215.343,179.921,215.343z"/>
	</g>
	<path fill="#CFDEFF" d="M106.602,196.323h106.98v-7.838H103.146C103.146,188.485,102.219,196.323,106.602,196.323z"/>
	<g>
		<path fill="#FF9696" stroke="#6E6E96" stroke-width="3" d="M214.994,188.135c0,2.009-1.644,3.651-3.652,3.651H108.036
			c-2.007,0-3.65-1.643-3.65-3.651v-81.189c0-2.008,1.643-3.65,3.65-3.65h103.306c2.009,0,3.652,1.642,3.652,3.65V188.135
			L214.994,188.135z"/>
	</g>
	<path fill="#8CD0FF" stroke="#6E6E96" stroke-width="3" stroke-linecap="round" stroke-linejoin="round" d="M96.915,135.87H71.967
		c-2.97,0-5.913,2.376-6.536,5.281l-4.948,27.698c-0.282,1.31-0.539,3.008-0.738,5.637h37.171l-0.001-0.89v-32.323V135.87z"/>
	<rect x="104.742" y="184.729" opacity="0.15" fill="#6E6E96" enable-background="new    " width="110.252" height="7.058"/>
	<path opacity="0.15" fill="#6E6E96" enable-background="new    " d="M69.446,149.663c0.623-2.907,1.46-8.889,9.24-8.889h18.677
		v0.947l0.001-5.403H72.415c-2.972,0-5.913,2.377-6.536,5.282l-4.948,27.696c-0.282,1.311-0.541,3.009-0.737,5.636h4.735
		L69.446,149.663z"/>
	
		<rect x="48.953" y="193.443" fill="#FFF23F" stroke="#6E6E96" stroke-width="3" stroke-linecap="round" stroke-linejoin="round" width="7.317" height="9.125"/>
	<g>
		<path fill="#F0F0FF" d="M174.811,175.415c0,2.479,2.028,4.507,4.508,4.507h2.253c2.479,0,4.508-2.028,4.508-4.507v-57.693
			c0-2.479-2.028-4.507-4.508-4.507h-2.253c-2.479,0-4.508,2.028-4.508,4.507V175.415z M154.077,175.415
			c0,2.479,2.028,4.507,4.508,4.507h2.704c2.479,0,4.507-2.028,4.507-4.507v-57.693c0-2.479-2.028-4.507-4.507-4.507h-2.704
			c-2.479,0-4.508,2.028-4.508,4.507V175.415z M133.795,175.415c0,2.479,2.028,4.507,4.507,4.507h2.254
			c2.479,0,4.507-2.028,4.507-4.507v-57.693c0-2.479-2.027-4.507-4.507-4.507h-2.254c-2.479,0-4.507,2.028-4.507,4.507V175.415z
			 M199.601,113.214c-2.479,0-4.507,2.028-4.507,4.507v57.693c0,2.479,2.028,4.507,4.507,4.507h0.901
			c2.479,0,4.508-2.028,4.508-4.507v-57.693c0-2.479-2.028-4.507-4.508-4.507H199.601L199.601,113.214z M113.963,175.415
			c0,2.479,2.028,4.507,4.507,4.507h1.803c2.479,0,4.507-2.028,4.507-4.507v-57.693c0-2.479-2.028-4.507-4.507-4.507h-1.803
			c-2.479,0-4.507,2.028-4.507,4.507V175.415z"/>
		<path fill="none" stroke="#6E6E96" stroke-width="3" stroke-linecap="round" stroke-linejoin="round" d="M174.811,175.415
			c0,2.479,2.028,4.507,4.508,4.507h2.253c2.479,0,4.508-2.028,4.508-4.507v-57.693c0-2.479-2.028-4.507-4.508-4.507h-2.253
			c-2.479,0-4.508,2.028-4.508,4.507V175.415z M154.077,175.415c0,2.479,2.028,4.507,4.508,4.507h2.704
			c2.479,0,4.507-2.028,4.507-4.507v-57.693c0-2.479-2.028-4.507-4.507-4.507h-2.704c-2.479,0-4.508,2.028-4.508,4.507V175.415z
			 M133.795,175.415c0,2.479,2.028,4.507,4.507,4.507h2.254c2.479,0,4.507-2.028,4.507-4.507v-57.693
			c0-2.479-2.027-4.507-4.507-4.507h-2.254c-2.479,0-4.507,2.028-4.507,4.507V175.415z M199.601,113.214
			c-2.479,0-4.507,2.028-4.507,4.507v57.693c0,2.479,2.028,4.507,4.507,4.507h0.901c2.479,0,4.508-2.028,4.508-4.507v-57.693
			c0-2.479-2.028-4.507-4.508-4.507H199.601L199.601,113.214z M113.963,175.415c0,2.479,2.028,4.507,4.507,4.507h1.803
			c2.479,0,4.507-2.028,4.507-4.507v-57.693c0-2.479-2.028-4.507-4.507-4.507h-1.803c-2.479,0-4.507,2.028-4.507,4.507V175.415z"/>
	</g>
	<line fill="none" stroke="#6E6E96" stroke-width="3" stroke-linecap="round" x1="91.727" y1="184.428" x2="85.568" y2="184.428"/>
	
		<rect x="210.869" y="199.302" fill="#F59393" stroke="#6E6E96" stroke-width="3" stroke-linecap="round" stroke-linejoin="round" width="7.946" height="9.179"/>
	
		<rect x="48.953" y="202.568" fill="#F59393" stroke="#6E6E96" stroke-width="3" stroke-linecap="round" stroke-linejoin="round" width="7.317" height="11.462"/>
	<path fill="#FFADAD" d="M209.973,104.798H109.411c-1.937,0-3.521,1.583-3.521,3.521v3.212c0-1.936,1.584-3.521,3.521-3.521h100.562
		c1.937,0,3.523,1.584,3.523,3.521v-3.212C213.496,106.383,211.909,104.798,209.973,104.798z"/>
	<rect x="61.228" y="175.866" fill="#CFDEFF" width="34.255" height="2.854"/>
	<path opacity="0.15" fill="#6E6E96" enable-background="new    " d="M62.918,200.204h-3.022v5.409h3.022
		c0,0,4.171-8.789,16.265-8.789h17.884v-3.606H79.182C67.089,193.217,62.918,200.204,62.918,200.204z"/>
	<polyline opacity="0.37" fill="#FFFFFF" enable-background="new    " points="67.853,162.283 89.383,140.751 95.559,140.751 
		95.559,148.398 70.937,173.019 65.272,173.019 67.192,162.283 	"/>
	<polygon opacity="0.25" fill="#FFFFFF" enable-background="new    " points="76.592,173.16 81.117,173.16 95.476,158.801 
		95.476,154.276 	"/>
	
		<line opacity="0.4" fill="none" stroke="#FFFFFF" stroke-width="3" enable-background="new    " x1="50.411" y1="205.387" x2="54.468" y2="205.387"/>
	<path fill="#CCCCF0" d="M68.036,225.255c0-8.004,6.489-14.49,14.49-14.49c4.773,0,8.994,2.317,11.634,5.877
		c-2.218-5.396-7.521-9.197-13.716-9.197c-8.189,0-14.828,6.638-14.828,14.828c0,4.299,1.84,8.157,4.76,10.865
		C68.901,230.868,68.036,228.165,68.036,225.255z"/>
	
		<line opacity="0.3" fill="none" stroke="#FFFFFF" stroke-width="3" enable-background="new    " x1="212.371" y1="202.007" x2="217.329" y2="202.007"/>
	<path opacity="0.2" fill="#6E6E96" enable-background="new    " d="M189.63,212.351c2.206,2.502,3.555,5.777,3.555,9.376
		c0,7.842-6.356,14.198-14.198,14.198c-7.337,0-13.372-5.565-14.119-12.705c-0.053,0.52-0.08,1.046-0.08,1.579
		c0,8.589,6.964,15.55,15.551,15.55c8.589,0,15.552-6.961,15.552-15.55C195.89,219.7,193.424,215.187,189.63,212.351z"/>
	<g opacity="0.2">
		<g>
			<path fill="#6E6E96" d="M90.281,211.862c2.206,2.502,3.555,5.777,3.555,9.376c0,7.842-6.356,14.198-14.199,14.198
				c-7.336,0-13.372-5.566-14.118-12.705c-0.053,0.519-0.08,1.046-0.08,1.579c0,8.587,6.963,15.55,15.551,15.55
				c8.588,0,15.551-6.963,15.551-15.55C96.542,219.21,94.075,214.697,90.281,211.862z"/>
		</g>
	</g>
	<path fill="#CCCCF0" d="M166.744,224.58c0-8.004,6.489-14.49,14.49-14.49c4.773,0,8.994,2.316,11.635,5.877
		c-2.219-5.396-7.521-9.197-13.717-9.197c-8.188,0-14.828,6.637-14.828,14.828c0,4.298,1.84,8.156,4.76,10.864
		C167.61,230.191,166.744,227.489,166.744,224.58z"/>
	<path fill="#6E6E96" d="M179.735,208.335c8.492,0,15.401,6.908,15.401,15.4c0,8.491-6.909,15.4-15.401,15.4
		c-8.491,0-15.4-6.909-15.4-15.4C164.334,215.244,171.243,208.335,179.735,208.335z M159.225,223.736
		c0,11.307,9.199,20.51,20.51,20.51c11.31,0,20.511-9.201,20.511-20.51c0-11.31-9.201-20.511-20.511-20.511
		S159.225,212.425,159.225,223.736z"/>
	<path fill="#6E6E96" d="M81.112,208.335c8.491,0,15.399,6.908,15.399,15.4c0,8.491-6.908,15.4-15.399,15.4
		c-8.492,0-15.4-6.909-15.4-15.4C65.712,215.244,72.62,208.335,81.112,208.335z M60.602,223.736c0,11.307,9.201,20.51,20.51,20.51
		c11.309,0,20.509-9.201,20.509-20.51c0-11.31-9.201-20.511-20.509-20.511C69.803,203.225,60.602,212.425,60.602,223.736z"/>
	
		<line fill="none" stroke="#6E6E96" stroke-width="3" stroke-linecap="round" x1="109.155" y1="228.053" x2="109.155" y2="234.008"/>
	
		<line fill="none" stroke="#6E6E96" stroke-width="3" stroke-linecap="round" x1="206.359" y1="228.053" x2="206.359" y2="234.008"/>
	<path opacity="0.2" fill="#6E6E96" enable-background="new    " d="M156.631,228.053c0,0-1.306-26.797,19.532-26.797
		s26.743,16.334,26.743,26.797l3.434-1.46c0,0,0.806-28.668-29.56-28.668s-23.306,30.128-23.306,30.128H156.631z"/>
	<path opacity="0.2" fill="#6E6E96" enable-background="new    " d="M60.814,226.658c0,0-0.637-25.703,20.396-25.703
		c21.034,0,22.837,20.241,22.837,27.099l5.108-1.46c0,0,0.221-28.668-18.329-28.668s-34.556-3.473-34.556,30.128L60.814,226.658z"/>
</g>
</svg>
